# Blender 4.0.0
# www.blender.org
o Billboard_2K_Albedo.004
v 0.041566 -0.105757 0.265774
v -0.040112 0.067283 0.335572
v 0.186482 -0.101090 0.141937
v 0.051916 0.183415 0.256930
v 0.177613 0.165700 0.149516
v 0.217267 0.137159 0.115630
v -0.191798 -0.108277 0.157512
v 0.283843 -0.108277 0.026152
v -0.234653 0.246070 0.169347
v 0.325532 0.090783 0.014639
v 0.195838 0.180295 0.050457
v 0.216924 0.236711 0.044634
v 0.103237 0.296269 0.076031
v -0.096678 -0.101892 0.209228
v -0.039765 -0.101252 0.226500
v 0.097559 0.129797 0.268176
v -0.013620 0.196092 0.234435
v -0.130031 0.191308 0.199106
v -0.171205 0.145304 0.186611
v 0.155191 -0.103934 -0.158794
v 0.075841 -0.102780 -0.138309
v 0.177852 0.127048 -0.164645
v 0.078576 0.139352 -0.139015
v 0.029585 0.065805 -0.126367
v -0.097238 -0.105992 0.101483
v -0.130318 0.089743 0.185496
v -0.070984 0.252385 0.034804
v 0.027973 0.045580 -0.216522
v 0.026181 -0.105992 -0.211971
v 0.036573 0.229772 -0.241455
v 0.045975 -0.105992 -0.157979
v 0.095113 0.218887 -0.092719
v 0.029722 0.145561 -0.179565
v 0.205768 -0.105992 0.054241
v 0.199178 0.231530 0.045488
vn 0.6497 -0.0000 0.7602
vn 0.2662 -0.0000 0.9639
vn -0.2904 -0.0000 0.9569
vn -0.2500 -0.0000 -0.9683
vn 0.9305 -0.0000 0.3664
vn 0.9320 0.0055 0.3624
vn 0.7989 -0.0000 -0.6015
vt 0.758533 0.229239
vt 0.772148 0.521050
vt 0.651095 0.404919
vt 0.949154 0.239212
vt 0.937488 0.503335
vt 0.989649 0.474795
vt 0.287456 0.570894
vt 0.780902 0.570894
vt 0.242996 0.925241
vt 0.689602 0.859466
vt 0.593535 0.975440
vt 0.711478 0.915882
vt 0.824152 0.769954
vt 0.145648 0.365882
vt 0.289157 0.596932
vt 0.172971 0.663226
vt 0.051317 0.658442
vt 0.086173 0.365242
vt 0.008289 0.612438
vt 0.061390 0.915957
vt 0.084795 0.684975
vt 0.166746 0.686129
vt 0.163922 0.928261
vt 0.214519 0.854713
vt 0.166186 0.384026
vt 0.004275 0.221469
vt 0.096075 0.028899
vt 0.437175 0.179069
vt 0.455566 0.361940
vt 0.432952 0.028899
vt 0.624572 0.350528
vt 0.707813 0.028899
vt 0.733283 0.277202
vt 0.439878 0.336717
vt 0.442161 0.028899
s 0
f 1/1/1 4/2/1 2/3/1
f 3/4/1 4/2/1 1/1/1
f 4/2/1 3/4/1 5/5/1
f 5/5/1 3/4/1 6/6/1
f 7/7/2 8/8/2 9/9/2
f 9/9/2 8/8/2 11/10/2 13/11/2
f 13/11/2 11/10/2 12/12/2
f 11/10/2 8/8/2 10/13/2
f 15/14/3 16/15/3 17/16/3
f 17/16/3 18/17/3 15/14/3
f 14/18/3 15/14/3 18/17/3
f 18/17/3 19/19/3 14/18/3
f 22/20/4 20/21/4 21/22/4
f 23/23/4 22/20/4 21/22/4
f 21/22/4 24/24/4 23/23/4
f 27/25/5 26/26/5 25/27/5
f 25/27/5 28/28/5 27/25/5
f 27/25/6 28/28/6 30/29/6
f 28/28/5 25/27/5 29/30/5
f 32/31/7 31/32/7 33/33/7
f 31/32/7 32/31/7 35/34/7
f 35/34/7 34/35/7 31/32/7
